<svg width="24" height="24" viewBox="0 0 24 24" fill="none" xmlns="http://www.w3.org/2000/svg">
<path d="M17.5 5C15.55 5 13.45 5.4 12 6.5C10.55 5.4 8.45 5 6.5 5C5.05 5 3.51 5.22 2.22 5.79C1.49 6.12 1 6.83 1 7.64V18.92C1 20.22 2.22 21.18 3.48 20.86C4.46 20.61 5.5 20.5 6.5 20.5C8.06 20.5 9.72 20.76 11.06 21.42C11.66 21.72 12.34 21.72 12.93 21.42C14.27 20.75 15.93 20.5 17.49 20.5C18.49 20.5 19.53 20.61 20.51 20.86C21.77 21.19 22.99 20.23 22.99 18.92V7.64C22.99 6.83 22.5 6.12 21.77 5.79C20.49 5.22 18.95 5 17.5 5ZM21 17.73C21 18.36 20.42 18.82 19.8 18.71C19.05 18.57 18.27 18.51 17.5 18.51C15.8 18.51 13.35 19.16 12 20.01V8.5C13.35 7.65 15.8 7 17.5 7C18.42 7 19.33 7.09 20.2 7.28C20.66 7.38 21 7.79 21 8.26V17.73Z" fill="url(#paint0_linear_22_37)"/>
<path d="M13.98 11.01C13.66 11.01 13.37 10.81 13.27 10.49C13.14 10.1 13.36 9.66998 13.75 9.54998C15.29 9.04998 17.28 8.88998 19.11 9.09998C19.52 9.14998 19.82 9.51998 19.77 9.92998C19.72 10.34 19.35 10.64 18.94 10.59C17.32 10.4 15.55 10.55 14.21 10.98C14.13 10.99 14.05 11.01 13.98 11.01Z" fill="url(#paint1_linear_22_37)"/>
<path d="M13.98 13.67C13.66 13.67 13.37 13.47 13.27 13.15C13.14 12.76 13.36 12.33 13.75 12.21C15.28 11.71 17.28 11.55 19.11 11.76C19.52 11.81 19.82 12.18 19.77 12.59C19.72 13 19.35 13.3 18.94 13.25C17.32 13.06 15.55 13.21 14.21 13.64C14.13 13.66 14.05 13.67 13.98 13.67Z" fill="url(#paint2_linear_22_37)"/>
<path d="M13.98 16.33C13.66 16.33 13.37 16.13 13.27 15.81C13.14 15.42 13.36 14.99 13.75 14.87C15.28 14.37 17.28 14.21 19.11 14.42C19.52 14.47 19.82 14.84 19.77 15.25C19.72 15.66 19.35 15.95 18.94 15.91C17.32 15.72 15.55 15.87 14.21 16.3C14.13 16.32 14.05 16.33 13.98 16.33Z" fill="url(#paint3_linear_22_37)"/>
<defs>
<linearGradient id="paint0_linear_22_37" x1="11.995" y1="5" x2="11.995" y2="21.645" gradientUnits="userSpaceOnUse">
<stop stop-color="#456CD1"/>
<stop offset="1" stop-color="#67B1F7"/>
</linearGradient>
<linearGradient id="paint1_linear_22_37" x1="16.504" y1="9.00989" x2="16.504" y2="11.01" gradientUnits="userSpaceOnUse">
<stop stop-color="#456CD1"/>
<stop offset="1" stop-color="#67B1F7"/>
</linearGradient>
<linearGradient id="paint2_linear_22_37" x1="16.504" y1="11.6699" x2="16.504" y2="13.67" gradientUnits="userSpaceOnUse">
<stop stop-color="#456CD1"/>
<stop offset="1" stop-color="#67B1F7"/>
</linearGradient>
<linearGradient id="paint3_linear_22_37" x1="16.504" y1="14.33" x2="16.504" y2="16.33" gradientUnits="userSpaceOnUse">
<stop stop-color="#456CD1"/>
<stop offset="1" stop-color="#67B1F7"/>
</linearGradient>
</defs>
</svg>
